<svg xmlns="http://www.w3.org/2000/svg" xmlns:xlink="http://www.w3.org/1999/xlink" width="128" height="128" viewBox="0 0 128 128"><defs><clipPath id="a"><rect width="128" height="128" transform="translate(360 34)" fill="#fff" stroke="#707070" stroke-width="1"/></clipPath></defs><g transform="translate(-360 -34)" clip-path="url(#a)"><g transform="translate(-192.708 -40.67)"><g transform="translate(548.351 76.279)"><g transform="matrix(0.485, 0.875, -0.875, 0.485, 109.564, 48.802)"><path d="M7.437,0c2.849,1.7,9.14,10.447,7,17.1a16.331,16.331,0,0,1-7,9.216Zm-7,17.1C-1.7,10.447,4.589,1.7,7.437,0V26.317A16.331,16.331,0,0,1,.434,17.1Z" transform="translate(20.564 0)" fill="#fff"/><path d="M7.437,0c2.849,1.7,9.14,10.447,7,17.1a16.331,16.331,0,0,1-7,9.216Zm-7,17.1C-1.7,10.447,4.589,1.7,7.437,0V26.317A16.331,16.331,0,0,1,.434,17.1Z" transform="translate(48.565 7.239) rotate(60)" fill="#fff"/><path d="M7.437,0c2.849,1.7,9.14,10.447,7,17.1a16.331,16.331,0,0,1-7,9.216Zm-7,17.1C-1.7,10.447,4.589,1.7,7.437,0V26.317A16.331,16.331,0,0,1,.434,17.1Z" transform="translate(56.002 35.431) rotate(120)" fill="#fff"/><path d="M7.437,0c2.849,1.7,9.14,10.447,7,17.1a16.331,16.331,0,0,1-7,9.216Zm-7,17.1C-1.7,10.447,4.589,1.7,7.437,0V26.317A16.331,16.331,0,0,1,.434,17.1Z" transform="translate(35.439 55.69) rotate(180)" fill="#fff"/><path d="M7.437,0c2.849,1.7,9.14,10.447,7,17.1a16.331,16.331,0,0,1-7,9.216Zm-7,17.1C-1.7,10.447,4.589,1.7,7.437,0V26.317A16.331,16.331,0,0,1,.434,17.1Z" transform="translate(7.437 48.313) rotate(-120)" fill="#fff"/><path d="M7.437,0c2.849,1.7,9.14,10.447,7,17.1a16.331,16.331,0,0,1-7,9.216Zm-7,17.1C-1.7,10.447,4.589,1.7,7.437,0V26.317A16.331,16.331,0,0,1,.434,17.1Z" transform="translate(0 20.121) rotate(-60)" fill="#fff"/><path d="M7.437,0c2.849,1.7,9.14,10.447,7,17.1a16.331,16.331,0,0,1-7,9.216Zm-7,17.1C-1.7,10.447,4.589,1.7,7.437,0V26.317A16.331,16.331,0,0,1,.434,17.1Z" transform="translate(20.564 0)" fill="none"/></g><g transform="matrix(0.966, 0.259, -0.259, 0.966, 24.511, 0)"><path d="M12.648,0C17.492,2.895,28.19,17.765,24.556,29.08S12.648,44.753,12.648,44.753ZM.739,29.08C-2.895,17.765,7.8,2.895,12.648,0V44.753S4.372,40.4.739,29.08Z" transform="translate(34.969)" fill="#fff"/><path d="M12.648,0C17.492,2.895,28.19,17.765,24.556,29.08S12.648,44.753,12.648,44.753ZM.739,29.08C-2.895,17.765,7.8,2.895,12.648,0V44.753S4.372,40.4.739,29.08Z" transform="translate(82.586 12.31) rotate(60)" fill="#fff"/><path d="M12.648,0C17.492,2.895,28.19,17.765,24.556,29.08S12.648,44.753,12.648,44.753ZM.739,29.08C-2.895,17.765,7.8,2.895,12.648,0V44.753S4.372,40.4.739,29.08Z" transform="translate(95.234 60.252) rotate(120)" fill="#fff"/><path d="M12.648,0C17.492,2.895,28.19,17.765,24.556,29.08S12.648,44.753,12.648,44.753ZM.739,29.08C-2.895,17.765,7.8,2.895,12.648,0V44.753S4.372,40.4.739,29.08Z" transform="translate(60.264 94.703) rotate(180)" fill="#fff"/><path d="M12.648,0C17.492,2.895,28.19,17.765,24.556,29.08S12.648,44.753,12.648,44.753ZM.739,29.08C-2.895,17.765,7.8,2.895,12.648,0V44.753S4.372,40.4.739,29.08Z" transform="translate(12.648 82.158) rotate(-120)" fill="#fff"/><path d="M12.648,0C17.492,2.895,28.19,17.765,24.556,29.08S12.648,44.753,12.648,44.753ZM.739,29.08C-2.895,17.765,7.8,2.895,12.648,0V44.753S4.372,40.4.739,29.08Z" transform="translate(0 34.216) rotate(-60)" fill="#fff"/><path d="M12.648,0C17.492,2.895,28.19,17.765,24.556,29.08S12.648,44.753,12.648,44.753ZM.739,29.08C-2.895,17.765,7.8,2.895,12.648,0V44.753S4.372,40.4.739,29.08Z" transform="translate(34.969)" fill="none"/></g></g></g></g></svg>