<?xml version="1.0" standalone="no"?>
<!DOCTYPE svg PUBLIC "-//W3C//DTD SVG 20010904//EN"
 "http://www.w3.org/TR/2001/REC-SVG-20010904/DTD/svg10.dtd">
<svg version="1.0" xmlns="http://www.w3.org/2000/svg"
 width="700.000000pt" height="700.000000pt" viewBox="0 0 700.000000 700.000000"
 preserveAspectRatio="xMidYMid meet">
<metadata>
Created by potrace 1.14, written by Peter Selinger 2001-2017
</metadata>
<g transform="translate(0.000000,700.000000) scale(0.100000,-0.100000)"
fill="#000000" stroke="none">
<path d="M3559 6214 c-269 -113 -631 -449 -814 -756 -54 -91 -130 -269 -140
-330 -4 -21 -9 -38 -12 -38 -3 0 -41 34 -85 75 -235 225 -631 388 -1057 435
-135 15 -329 9 -342 -11 -15 -24 -22 -142 -15 -254 20 -352 141 -730 316 -990
30 -44 91 -118 136 -165 l83 -86 -77 -18 c-163 -37 -382 -151 -552 -286 -147
-117 -337 -322 -440 -475 -50 -74 -130 -229 -130 -249 1 -33 201 -149 370
-215 389 -153 781 -195 1076 -117 49 14 90 24 90 23 1 -1 -7 -35 -17 -76 -67
-262 -43 -598 65 -931 79 -245 221 -510 273 -510 23 0 161 71 234 121 183 123
395 326 528 504 98 132 200 329 231 449 l23 86 79 -76 c141 -134 340 -250 569
-328 57 -20 110 -38 116 -41 8 -3 -7 -32 -41 -82 -67 -97 -137 -236 -165 -327
-31 -101 -29 -114 22 -136 105 -46 345 -71 502 -51 126 15 198 35 288 79 l77
38 0 -75 c1 -176 79 -389 212 -575 61 -87 157 -186 179 -186 22 0 164 154 221
240 117 178 177 336 186 492 2 54 6 98 7 98 2 0 29 -16 61 -35 124 -75 241
-104 449 -112 154 -5 279 8 370 40 40 14 40 15 38 61 -6 95 -93 303 -184 437
-62 91 -166 197 -244 248 l-71 47 60 34 c79 46 209 175 275 274 95 144 195
384 178 429 -6 17 -101 50 -197 69 -94 18 -358 15 -446 -5 -82 -18 -194 -59
-227 -82 -31 -22 -39 -19 -32 14 17 78 -37 306 -106 443 -75 150 -239 358
-283 358 -28 0 -153 -133 -223 -237 -124 -185 -193 -379 -193 -541 l0 -53 -29
21 c-17 11 -59 34 -94 50 -56 27 -68 37 -92 83 -58 107 -122 195 -208 284 -89
92 -89 92 -61 98 151 32 326 109 471 205 265 178 533 470 655 715 57 113 58
107 -14 158 -35 25 -108 67 -163 95 -403 201 -884 272 -1229 182 -43 -12 -80
-20 -81 -18 -2 2 6 39 17 83 29 117 36 381 14 535 -43 294 -153 607 -280 799
-63 94 -61 93 -127 65z m-634 -2273 l56 -70 82 29 c45 16 83 28 84 26 2 -1 -6
-29 -17 -61 -11 -32 -20 -64 -20 -71 0 -8 34 -41 76 -74 42 -33 70 -62 62 -64
-7 -2 -49 -9 -93 -16 -47 -7 -85 -18 -92 -27 -6 -8 -17 -46 -23 -83 l-12 -69
-47 57 c-72 86 -67 84 -141 58 -36 -13 -74 -27 -84 -31 -16 -7 -18 -5 -12 11
5 10 17 45 28 77 l20 58 -26 28 c-15 16 -51 46 -81 67 l-53 39 99 16 c55 10
103 19 106 22 3 3 10 38 16 76 6 39 12 71 13 71 1 0 27 -31 59 -69z m2207
-1644 l38 -30 40 27 41 27 -3 -57 -3 -57 50 -25 50 -25 -44 -19 -43 -18 4 -65
c2 -36 2 -65 0 -65 -2 0 -22 16 -45 35 -22 19 -45 35 -51 35 -6 0 -28 -11 -48
-25 -44 -30 -47 -30 -43 -7 18 89 17 90 -38 119 l-52 26 48 20 49 20 -7 65
c-8 71 -9 71 57 19z"/>
</g>
</svg>
